<?xml version="1.0" encoding="UTF-8" standalone="no"?>
<!DOCTYPE svg PUBLIC "-//W3C//DTD SVG 1.1//EN"
 "http://www.w3.org/Graphics/SVG/1.1/DTD/svg11.dtd">
<!-- Generated by graphviz version 2.50.0 (0)
 -->
<!-- Title: snakemake_dag Pages: 1 -->
<svg width="1418pt" height="692pt"
 viewBox="0.00 0.00 1418.00 692.00" xmlns="http://www.w3.org/2000/svg" xmlns:xlink="http://www.w3.org/1999/xlink">
<g id="graph0" class="graph" transform="scale(1 1) rotate(0) translate(4 688)">
<title>snakemake_dag</title>
<polygon fill="white" stroke="transparent" points="-4,4 -4,-688 1414,-688 1414,4 -4,4"/>
<!-- 0 -->
<g id="node1" class="node">
<title>0</title>
<path fill="none" stroke="#d6d856" stroke-width="2" d="M847,-36C847,-36 817,-36 817,-36 811,-36 805,-30 805,-24 805,-24 805,-12 805,-12 805,-6 811,0 817,0 817,0 847,0 847,0 853,0 859,-6 859,-12 859,-12 859,-24 859,-24 859,-30 853,-36 847,-36"/>
<text text-anchor="middle" x="832" y="-15.5" font-family="sans" font-size="10.00">all</text>
</g>
<!-- 1 -->
<g id="node2" class="node">
<title>1</title>
<path fill="none" stroke="#afd856" stroke-width="2" d="M72,-324C72,-324 12,-324 12,-324 6,-324 0,-318 0,-312 0,-312 0,-300 0,-300 0,-294 6,-288 12,-288 12,-288 72,-288 72,-288 78,-288 84,-294 84,-300 84,-300 84,-312 84,-312 84,-318 78,-324 72,-324"/>
<text text-anchor="middle" x="42" y="-303.5" font-family="sans" font-size="10.00">rename_fasta</text>
</g>
<!-- 1&#45;&gt;0 -->
<g id="edge1" class="edge">
<title>1&#45;&gt;0</title>
<path fill="none" stroke="grey" stroke-width="2" d="M40.07,-287.83C36.19,-243.96 32.8,-127.31 98,-72 151.41,-26.69 651.89,-20.12 794.34,-19.16"/>
<polygon fill="grey" stroke="grey" stroke-width="2" points="794.75,-22.66 804.73,-19.1 794.71,-15.66 794.75,-22.66"/>
</g>
<!-- 2 -->
<g id="node3" class="node">
<title>2</title>
<path fill="none" stroke="#56d8d8" stroke-width="2" d="M112,-468C112,-468 42,-468 42,-468 36,-468 30,-462 30,-456 30,-456 30,-444 30,-444 30,-438 36,-432 42,-432 42,-432 112,-432 112,-432 118,-432 124,-438 124,-444 124,-444 124,-456 124,-456 124,-462 118,-468 112,-468"/>
<text text-anchor="middle" x="77" y="-447.5" font-family="sans" font-size="10.00">propagate_snps</text>
</g>
<!-- 2&#45;&gt;1 -->
<g id="edge16" class="edge">
<title>2&#45;&gt;1</title>
<path fill="none" stroke="grey" stroke-width="2" d="M72.34,-431.84C69.56,-421.48 66,-408 63,-396 57.83,-375.34 52.32,-351.89 48.23,-334.25"/>
<polygon fill="grey" stroke="grey" stroke-width="2" points="51.55,-333.05 45.89,-324.09 44.73,-334.63 51.55,-333.05"/>
</g>
<!-- 16 -->
<g id="node17" class="node">
<title>16</title>
<path fill="none" stroke="#d85656" stroke-width="2" d="M139.5,-396C139.5,-396 84.5,-396 84.5,-396 78.5,-396 72.5,-390 72.5,-384 72.5,-384 72.5,-372 72.5,-372 72.5,-366 78.5,-360 84.5,-360 84.5,-360 139.5,-360 139.5,-360 145.5,-360 151.5,-366 151.5,-372 151.5,-372 151.5,-384 151.5,-384 151.5,-390 145.5,-396 139.5,-396"/>
<text text-anchor="middle" x="112" y="-375.5" font-family="sans" font-size="10.00">rename_VCF</text>
</g>
<!-- 2&#45;&gt;16 -->
<g id="edge28" class="edge">
<title>2&#45;&gt;16</title>
<path fill="none" stroke="grey" stroke-width="2" d="M85.65,-431.7C89.64,-423.73 94.45,-414.1 98.87,-405.26"/>
<polygon fill="grey" stroke="grey" stroke-width="2" points="102.11,-406.61 103.45,-396.1 95.85,-403.48 102.11,-406.61"/>
</g>
<!-- 3 -->
<g id="node4" class="node">
<title>3</title>
<path fill="none" stroke="#56d882" stroke-width="2" d="M105,-540C105,-540 49,-540 49,-540 43,-540 37,-534 37,-528 37,-528 37,-516 37,-516 37,-510 43,-504 49,-504 49,-504 105,-504 105,-504 111,-504 117,-510 117,-516 117,-516 117,-528 117,-528 117,-534 111,-540 105,-540"/>
<text text-anchor="middle" x="77" y="-519.5" font-family="sans" font-size="10.00">snp_only_vcf</text>
</g>
<!-- 3&#45;&gt;2 -->
<g id="edge17" class="edge">
<title>3&#45;&gt;2</title>
<path fill="none" stroke="grey" stroke-width="2" d="M77,-503.7C77,-495.98 77,-486.71 77,-478.11"/>
<polygon fill="grey" stroke="grey" stroke-width="2" points="80.5,-478.1 77,-468.1 73.5,-478.1 80.5,-478.1"/>
</g>
<!-- 4 -->
<g id="node5" class="node">
<title>4</title>
<path fill="none" stroke="#5682d8" stroke-width="2" d="M119,-612C119,-612 35,-612 35,-612 29,-612 23,-606 23,-600 23,-600 23,-588 23,-588 23,-582 29,-576 35,-576 35,-576 119,-576 119,-576 125,-576 131,-582 131,-588 131,-588 131,-600 131,-600 131,-606 125,-612 119,-612"/>
<text text-anchor="middle" x="77" y="-591.5" font-family="sans" font-size="10.00">make_paftools_vcf</text>
</g>
<!-- 4&#45;&gt;3 -->
<g id="edge18" class="edge">
<title>4&#45;&gt;3</title>
<path fill="none" stroke="grey" stroke-width="2" d="M77,-575.7C77,-567.98 77,-558.71 77,-550.11"/>
<polygon fill="grey" stroke="grey" stroke-width="2" points="80.5,-550.1 77,-540.1 73.5,-550.1 80.5,-550.1"/>
</g>
<!-- 5 -->
<g id="node6" class="node">
<title>5</title>
<path fill="none" stroke="#80d856" stroke-width="2" d="M118.5,-684C118.5,-684 35.5,-684 35.5,-684 29.5,-684 23.5,-678 23.5,-672 23.5,-672 23.5,-660 23.5,-660 23.5,-654 29.5,-648 35.5,-648 35.5,-648 118.5,-648 118.5,-648 124.5,-648 130.5,-654 130.5,-660 130.5,-660 130.5,-672 130.5,-672 130.5,-678 124.5,-684 118.5,-684"/>
<text text-anchor="middle" x="77" y="-669" font-family="sans" font-size="10.00">align_to_reference</text>
<text text-anchor="middle" x="77" y="-658" font-family="sans" font-size="10.00">sample: PRD1</text>
</g>
<!-- 5&#45;&gt;4 -->
<g id="edge19" class="edge">
<title>5&#45;&gt;4</title>
<path fill="none" stroke="grey" stroke-width="2" d="M77,-647.7C77,-639.98 77,-630.71 77,-622.11"/>
<polygon fill="grey" stroke="grey" stroke-width="2" points="80.5,-622.1 77,-612.1 73.5,-622.1 80.5,-622.1"/>
</g>
<!-- 6 -->
<g id="node7" class="node">
<title>6</title>
<path fill="none" stroke="#afd856" stroke-width="2" d="M1258,-252C1258,-252 1198,-252 1198,-252 1192,-252 1186,-246 1186,-240 1186,-240 1186,-228 1186,-228 1186,-222 1192,-216 1198,-216 1198,-216 1258,-216 1258,-216 1264,-216 1270,-222 1270,-228 1270,-228 1270,-240 1270,-240 1270,-246 1264,-252 1258,-252"/>
<text text-anchor="middle" x="1228" y="-231.5" font-family="sans" font-size="10.00">rename_fasta</text>
</g>
<!-- 6&#45;&gt;0 -->
<g id="edge2" class="edge">
<title>6&#45;&gt;0</title>
<path fill="none" stroke="grey" stroke-width="2" d="M1231.34,-215.79C1236.65,-182.8 1242.79,-110.54 1204,-72 1157.4,-25.7 953.91,-19.45 869.2,-18.89"/>
<polygon fill="grey" stroke="grey" stroke-width="2" points="869.02,-15.39 859.01,-18.84 868.99,-22.39 869.02,-15.39"/>
</g>
<!-- 7 -->
<g id="node8" class="node">
<title>7</title>
<path fill="none" stroke="#56d8d8" stroke-width="2" d="M1228,-468C1228,-468 1158,-468 1158,-468 1152,-468 1146,-462 1146,-456 1146,-456 1146,-444 1146,-444 1146,-438 1152,-432 1158,-432 1158,-432 1228,-432 1228,-432 1234,-432 1240,-438 1240,-444 1240,-444 1240,-456 1240,-456 1240,-462 1234,-468 1228,-468"/>
<text text-anchor="middle" x="1193" y="-447.5" font-family="sans" font-size="10.00">propagate_snps</text>
</g>
<!-- 7&#45;&gt;6 -->
<g id="edge20" class="edge">
<title>7&#45;&gt;6</title>
<path fill="none" stroke="grey" stroke-width="2" d="M1198.1,-431.94C1201.04,-421.62 1204.62,-408.14 1207,-396 1216.18,-349.28 1222.39,-294.12 1225.55,-262"/>
<polygon fill="grey" stroke="grey" stroke-width="2" points="1229.03,-262.33 1226.5,-252.04 1222.07,-261.66 1229.03,-262.33"/>
</g>
<!-- 17 -->
<g id="node18" class="node">
<title>17</title>
<path fill="none" stroke="#d85656" stroke-width="2" d="M1185.5,-396C1185.5,-396 1130.5,-396 1130.5,-396 1124.5,-396 1118.5,-390 1118.5,-384 1118.5,-384 1118.5,-372 1118.5,-372 1118.5,-366 1124.5,-360 1130.5,-360 1130.5,-360 1185.5,-360 1185.5,-360 1191.5,-360 1197.5,-366 1197.5,-372 1197.5,-372 1197.5,-384 1197.5,-384 1197.5,-390 1191.5,-396 1185.5,-396"/>
<text text-anchor="middle" x="1158" y="-375.5" font-family="sans" font-size="10.00">rename_VCF</text>
</g>
<!-- 7&#45;&gt;17 -->
<g id="edge29" class="edge">
<title>7&#45;&gt;17</title>
<path fill="none" stroke="grey" stroke-width="2" d="M1184.35,-431.7C1180.36,-423.73 1175.55,-414.1 1171.13,-405.26"/>
<polygon fill="grey" stroke="grey" stroke-width="2" points="1174.15,-403.48 1166.55,-396.1 1167.89,-406.61 1174.15,-403.48"/>
</g>
<!-- 8 -->
<g id="node9" class="node">
<title>8</title>
<path fill="none" stroke="#56d882" stroke-width="2" d="M1221,-540C1221,-540 1165,-540 1165,-540 1159,-540 1153,-534 1153,-528 1153,-528 1153,-516 1153,-516 1153,-510 1159,-504 1165,-504 1165,-504 1221,-504 1221,-504 1227,-504 1233,-510 1233,-516 1233,-516 1233,-528 1233,-528 1233,-534 1227,-540 1221,-540"/>
<text text-anchor="middle" x="1193" y="-519.5" font-family="sans" font-size="10.00">snp_only_vcf</text>
</g>
<!-- 8&#45;&gt;7 -->
<g id="edge21" class="edge">
<title>8&#45;&gt;7</title>
<path fill="none" stroke="grey" stroke-width="2" d="M1193,-503.7C1193,-495.98 1193,-486.71 1193,-478.11"/>
<polygon fill="grey" stroke="grey" stroke-width="2" points="1196.5,-478.1 1193,-468.1 1189.5,-478.1 1196.5,-478.1"/>
</g>
<!-- 9 -->
<g id="node10" class="node">
<title>9</title>
<path fill="none" stroke="#5682d8" stroke-width="2" d="M1235,-612C1235,-612 1151,-612 1151,-612 1145,-612 1139,-606 1139,-600 1139,-600 1139,-588 1139,-588 1139,-582 1145,-576 1151,-576 1151,-576 1235,-576 1235,-576 1241,-576 1247,-582 1247,-588 1247,-588 1247,-600 1247,-600 1247,-606 1241,-612 1235,-612"/>
<text text-anchor="middle" x="1193" y="-591.5" font-family="sans" font-size="10.00">make_paftools_vcf</text>
</g>
<!-- 9&#45;&gt;8 -->
<g id="edge22" class="edge">
<title>9&#45;&gt;8</title>
<path fill="none" stroke="grey" stroke-width="2" d="M1193,-575.7C1193,-567.98 1193,-558.71 1193,-550.11"/>
<polygon fill="grey" stroke="grey" stroke-width="2" points="1196.5,-550.1 1193,-540.1 1189.5,-550.1 1196.5,-550.1"/>
</g>
<!-- 10 -->
<g id="node11" class="node">
<title>10</title>
<path fill="none" stroke="#80d856" stroke-width="2" d="M1241.5,-684C1241.5,-684 1144.5,-684 1144.5,-684 1138.5,-684 1132.5,-678 1132.5,-672 1132.5,-672 1132.5,-660 1132.5,-660 1132.5,-654 1138.5,-648 1144.5,-648 1144.5,-648 1241.5,-648 1241.5,-648 1247.5,-648 1253.5,-654 1253.5,-660 1253.5,-660 1253.5,-672 1253.5,-672 1253.5,-678 1247.5,-684 1241.5,-684"/>
<text text-anchor="middle" x="1193" y="-669" font-family="sans" font-size="10.00">align_to_reference</text>
<text text-anchor="middle" x="1193" y="-658" font-family="sans" font-size="10.00">sample: PRDcerulean</text>
</g>
<!-- 10&#45;&gt;9 -->
<g id="edge23" class="edge">
<title>10&#45;&gt;9</title>
<path fill="none" stroke="grey" stroke-width="2" d="M1193,-647.7C1193,-639.98 1193,-630.71 1193,-622.11"/>
<polygon fill="grey" stroke="grey" stroke-width="2" points="1196.5,-622.1 1193,-612.1 1189.5,-622.1 1196.5,-622.1"/>
</g>
<!-- 11 -->
<g id="node12" class="node">
<title>11</title>
<path fill="none" stroke="#afd856" stroke-width="2" d="M1398,-324C1398,-324 1338,-324 1338,-324 1332,-324 1326,-318 1326,-312 1326,-312 1326,-300 1326,-300 1326,-294 1332,-288 1338,-288 1338,-288 1398,-288 1398,-288 1404,-288 1410,-294 1410,-300 1410,-300 1410,-312 1410,-312 1410,-318 1404,-324 1398,-324"/>
<text text-anchor="middle" x="1368" y="-303.5" font-family="sans" font-size="10.00">rename_fasta</text>
</g>
<!-- 11&#45;&gt;0 -->
<g id="edge3" class="edge">
<title>11&#45;&gt;0</title>
<path fill="none" stroke="grey" stroke-width="2" d="M1369.81,-287.98C1373.39,-244.44 1376.14,-128.53 1312,-72 1278.94,-42.86 976.42,-25.84 869.35,-20.68"/>
<polygon fill="grey" stroke="grey" stroke-width="2" points="869.47,-17.18 859.32,-20.21 869.14,-24.18 869.47,-17.18"/>
</g>
<!-- 12 -->
<g id="node13" class="node">
<title>12</title>
<path fill="none" stroke="#56d8d8" stroke-width="2" d="M1367,-468C1367,-468 1297,-468 1297,-468 1291,-468 1285,-462 1285,-456 1285,-456 1285,-444 1285,-444 1285,-438 1291,-432 1297,-432 1297,-432 1367,-432 1367,-432 1373,-432 1379,-438 1379,-444 1379,-444 1379,-456 1379,-456 1379,-462 1373,-468 1367,-468"/>
<text text-anchor="middle" x="1332" y="-447.5" font-family="sans" font-size="10.00">propagate_snps</text>
</g>
<!-- 12&#45;&gt;11 -->
<g id="edge24" class="edge">
<title>12&#45;&gt;11</title>
<path fill="none" stroke="grey" stroke-width="2" d="M1337.06,-431.87C1340.06,-421.51 1343.88,-408.03 1347,-396 1352.35,-375.38 1357.86,-351.93 1361.89,-334.28"/>
<polygon fill="grey" stroke="grey" stroke-width="2" points="1365.4,-334.64 1364.2,-324.12 1358.57,-333.09 1365.4,-334.64"/>
</g>
<!-- 18 -->
<g id="node19" class="node">
<title>18</title>
<path fill="none" stroke="#d85656" stroke-width="2" d="M1325.5,-396C1325.5,-396 1270.5,-396 1270.5,-396 1264.5,-396 1258.5,-390 1258.5,-384 1258.5,-384 1258.5,-372 1258.5,-372 1258.5,-366 1264.5,-360 1270.5,-360 1270.5,-360 1325.5,-360 1325.5,-360 1331.5,-360 1337.5,-366 1337.5,-372 1337.5,-372 1337.5,-384 1337.5,-384 1337.5,-390 1331.5,-396 1325.5,-396"/>
<text text-anchor="middle" x="1298" y="-375.5" font-family="sans" font-size="10.00">rename_VCF</text>
</g>
<!-- 12&#45;&gt;18 -->
<g id="edge30" class="edge">
<title>12&#45;&gt;18</title>
<path fill="none" stroke="grey" stroke-width="2" d="M1323.6,-431.7C1319.73,-423.73 1315.05,-414.1 1310.76,-405.26"/>
<polygon fill="grey" stroke="grey" stroke-width="2" points="1313.83,-403.57 1306.31,-396.1 1307.53,-406.63 1313.83,-403.57"/>
</g>
<!-- 13 -->
<g id="node14" class="node">
<title>13</title>
<path fill="none" stroke="#56d882" stroke-width="2" d="M1360,-540C1360,-540 1304,-540 1304,-540 1298,-540 1292,-534 1292,-528 1292,-528 1292,-516 1292,-516 1292,-510 1298,-504 1304,-504 1304,-504 1360,-504 1360,-504 1366,-504 1372,-510 1372,-516 1372,-516 1372,-528 1372,-528 1372,-534 1366,-540 1360,-540"/>
<text text-anchor="middle" x="1332" y="-519.5" font-family="sans" font-size="10.00">snp_only_vcf</text>
</g>
<!-- 13&#45;&gt;12 -->
<g id="edge25" class="edge">
<title>13&#45;&gt;12</title>
<path fill="none" stroke="grey" stroke-width="2" d="M1332,-503.7C1332,-495.98 1332,-486.71 1332,-478.11"/>
<polygon fill="grey" stroke="grey" stroke-width="2" points="1335.5,-478.1 1332,-468.1 1328.5,-478.1 1335.5,-478.1"/>
</g>
<!-- 14 -->
<g id="node15" class="node">
<title>14</title>
<path fill="none" stroke="#5682d8" stroke-width="2" d="M1374,-612C1374,-612 1290,-612 1290,-612 1284,-612 1278,-606 1278,-600 1278,-600 1278,-588 1278,-588 1278,-582 1284,-576 1290,-576 1290,-576 1374,-576 1374,-576 1380,-576 1386,-582 1386,-588 1386,-588 1386,-600 1386,-600 1386,-606 1380,-612 1374,-612"/>
<text text-anchor="middle" x="1332" y="-591.5" font-family="sans" font-size="10.00">make_paftools_vcf</text>
</g>
<!-- 14&#45;&gt;13 -->
<g id="edge26" class="edge">
<title>14&#45;&gt;13</title>
<path fill="none" stroke="grey" stroke-width="2" d="M1332,-575.7C1332,-567.98 1332,-558.71 1332,-550.11"/>
<polygon fill="grey" stroke="grey" stroke-width="2" points="1335.5,-550.1 1332,-540.1 1328.5,-550.1 1335.5,-550.1"/>
</g>
<!-- 15 -->
<g id="node16" class="node">
<title>15</title>
<path fill="none" stroke="#80d856" stroke-width="2" d="M1380,-684C1380,-684 1284,-684 1284,-684 1278,-684 1272,-678 1272,-672 1272,-672 1272,-660 1272,-660 1272,-654 1278,-648 1284,-648 1284,-648 1380,-648 1380,-648 1386,-648 1392,-654 1392,-660 1392,-660 1392,-672 1392,-672 1392,-678 1386,-684 1380,-684"/>
<text text-anchor="middle" x="1332" y="-669" font-family="sans" font-size="10.00">align_to_reference</text>
<text text-anchor="middle" x="1332" y="-658" font-family="sans" font-size="10.00">sample: PRDobsidian</text>
</g>
<!-- 15&#45;&gt;14 -->
<g id="edge27" class="edge">
<title>15&#45;&gt;14</title>
<path fill="none" stroke="grey" stroke-width="2" d="M1332,-647.7C1332,-639.98 1332,-630.71 1332,-622.11"/>
<polygon fill="grey" stroke="grey" stroke-width="2" points="1335.5,-622.1 1332,-612.1 1328.5,-622.1 1335.5,-622.1"/>
</g>
<!-- 16&#45;&gt;0 -->
<g id="edge4" class="edge">
<title>16&#45;&gt;0</title>
<path fill="none" stroke="grey" stroke-width="2" d="M112,-359.95C112,-333.29 112,-280.11 112,-235 112,-235 112,-235 112,-161 112,-120.64 99.75,-98.71 130,-72 180.06,-27.8 656.31,-20.44 794.55,-19.23"/>
<polygon fill="grey" stroke="grey" stroke-width="2" points="794.68,-22.73 804.65,-19.15 794.63,-15.73 794.68,-22.73"/>
</g>
<!-- 21 -->
<g id="node22" class="node">
<title>21</title>
<path fill="none" stroke="#d88556" stroke-width="2" d="M930,-324C930,-324 846,-324 846,-324 840,-324 834,-318 834,-312 834,-312 834,-300 834,-300 834,-294 840,-288 846,-288 846,-288 930,-288 930,-288 936,-288 942,-294 942,-300 942,-300 942,-312 942,-312 942,-318 936,-324 930,-324"/>
<text text-anchor="middle" x="888" y="-303.5" font-family="sans" font-size="10.00">merge_VCF_PATHs</text>
</g>
<!-- 16&#45;&gt;21 -->
<g id="edge33" class="edge">
<title>16&#45;&gt;21</title>
<path fill="none" stroke="grey" stroke-width="2" d="M151.55,-373.43C277.22,-362.1 668.28,-326.82 823.53,-312.82"/>
<polygon fill="grey" stroke="grey" stroke-width="2" points="824.21,-316.27 833.85,-311.88 823.58,-309.3 824.21,-316.27"/>
</g>
<!-- 17&#45;&gt;0 -->
<g id="edge5" class="edge">
<title>17&#45;&gt;0</title>
<path fill="none" stroke="grey" stroke-width="2" d="M1160.13,-359.87C1167.53,-298.75 1190.75,-93.89 1172,-72 1133.33,-26.83 949.22,-19.86 869.24,-19"/>
<polygon fill="grey" stroke="grey" stroke-width="2" points="869.14,-15.5 859.12,-18.91 869.09,-22.5 869.14,-15.5"/>
</g>
<!-- 17&#45;&gt;21 -->
<g id="edge34" class="edge">
<title>17&#45;&gt;21</title>
<path fill="none" stroke="grey" stroke-width="2" d="M1118.45,-366.75C1074.69,-355.4 1003.54,-336.95 951.86,-323.56"/>
<polygon fill="grey" stroke="grey" stroke-width="2" points="952.68,-320.15 942.12,-321.03 950.92,-326.93 952.68,-320.15"/>
</g>
<!-- 18&#45;&gt;0 -->
<g id="edge6" class="edge">
<title>18&#45;&gt;0</title>
<path fill="none" stroke="grey" stroke-width="2" d="M1298,-359.95C1298,-333.29 1298,-280.11 1298,-235 1298,-235 1298,-235 1298,-161 1298,-110.68 1271.71,-96.95 1228,-72 1167.14,-37.26 955.62,-24.34 869.21,-20.44"/>
<polygon fill="grey" stroke="grey" stroke-width="2" points="869.22,-16.94 859.07,-20 868.91,-23.93 869.22,-16.94"/>
</g>
<!-- 18&#45;&gt;21 -->
<g id="edge35" class="edge">
<title>18&#45;&gt;21</title>
<path fill="none" stroke="grey" stroke-width="2" d="M1258.16,-369.38C1242.26,-366.38 1223.78,-362.96 1207,-360 1118.83,-344.44 1016.73,-327.7 952.26,-317.29"/>
<polygon fill="grey" stroke="grey" stroke-width="2" points="952.67,-313.81 942.24,-315.67 951.56,-320.72 952.67,-313.81"/>
</g>
<!-- 19 -->
<g id="node20" class="node">
<title>19</title>
<path fill="none" stroke="#56a9d8" stroke-width="2" d="M1089.5,-180C1089.5,-180 984.5,-180 984.5,-180 978.5,-180 972.5,-174 972.5,-168 972.5,-168 972.5,-156 972.5,-156 972.5,-150 978.5,-144 984.5,-144 984.5,-144 1089.5,-144 1089.5,-144 1095.5,-144 1101.5,-150 1101.5,-156 1101.5,-156 1101.5,-168 1101.5,-168 1101.5,-174 1095.5,-180 1089.5,-180"/>
<text text-anchor="middle" x="1037" y="-165" font-family="sans" font-size="10.00">calculate_NucDiversity</text>
<text text-anchor="middle" x="1037" y="-154" font-family="sans" font-size="10.00">WindowSize: 25</text>
</g>
<!-- 19&#45;&gt;0 -->
<g id="edge7" class="edge">
<title>19&#45;&gt;0</title>
<path fill="none" stroke="grey" stroke-width="2" d="M1022.66,-143.82C1005.83,-124.46 976.36,-92.98 946,-72 921.96,-55.39 891.89,-41.66 868.67,-32.33"/>
<polygon fill="grey" stroke="grey" stroke-width="2" points="869.76,-29 859.17,-28.61 867.21,-35.52 869.76,-29"/>
</g>
<!-- 24 -->
<g id="node25" class="node">
<title>24</title>
<path fill="none" stroke="#59d856" stroke-width="2" d="M1150.5,-108C1150.5,-108 1025.5,-108 1025.5,-108 1019.5,-108 1013.5,-102 1013.5,-96 1013.5,-96 1013.5,-84 1013.5,-84 1013.5,-78 1019.5,-72 1025.5,-72 1025.5,-72 1150.5,-72 1150.5,-72 1156.5,-72 1162.5,-78 1162.5,-84 1162.5,-84 1162.5,-96 1162.5,-96 1162.5,-102 1156.5,-108 1150.5,-108"/>
<text text-anchor="middle" x="1088" y="-87.5" font-family="sans" font-size="10.00">IncludeAllWindows_NucDiv</text>
</g>
<!-- 19&#45;&gt;24 -->
<g id="edge38" class="edge">
<title>19&#45;&gt;24</title>
<path fill="none" stroke="grey" stroke-width="2" d="M1049.61,-143.7C1055.6,-135.47 1062.88,-125.48 1069.48,-116.42"/>
<polygon fill="grey" stroke="grey" stroke-width="2" points="1072.48,-118.25 1075.54,-108.1 1066.82,-114.13 1072.48,-118.25"/>
</g>
<!-- 20 -->
<g id="node21" class="node">
<title>20</title>
<path fill="none" stroke="#56d8a9" stroke-width="2" d="M786,-252C786,-252 714,-252 714,-252 708,-252 702,-246 702,-240 702,-240 702,-228 702,-228 702,-222 708,-216 714,-216 714,-216 786,-216 786,-216 792,-216 798,-222 798,-228 798,-228 798,-240 798,-240 798,-246 792,-252 786,-252"/>
<text text-anchor="middle" x="750" y="-231.5" font-family="sans" font-size="10.00">merge_All_VCFs</text>
</g>
<!-- 20&#45;&gt;19 -->
<g id="edge31" class="edge">
<title>20&#45;&gt;19</title>
<path fill="none" stroke="grey" stroke-width="2" d="M798.04,-221.28C842.94,-210.33 910.65,-193.82 962.55,-181.16"/>
<polygon fill="grey" stroke="grey" stroke-width="2" points="963.49,-184.53 972.38,-178.76 961.83,-177.73 963.49,-184.53"/>
</g>
<!-- 22 -->
<g id="node23" class="node">
<title>22</title>
<path fill="none" stroke="#56a9d8" stroke-width="2" d="M365.5,-180C365.5,-180 260.5,-180 260.5,-180 254.5,-180 248.5,-174 248.5,-168 248.5,-168 248.5,-156 248.5,-156 248.5,-150 254.5,-144 260.5,-144 260.5,-144 365.5,-144 365.5,-144 371.5,-144 377.5,-150 377.5,-156 377.5,-156 377.5,-168 377.5,-168 377.5,-174 371.5,-180 365.5,-180"/>
<text text-anchor="middle" x="313" y="-165" font-family="sans" font-size="10.00">calculate_NucDiversity</text>
<text text-anchor="middle" x="313" y="-154" font-family="sans" font-size="10.00">WindowSize: 50</text>
</g>
<!-- 20&#45;&gt;22 -->
<g id="edge36" class="edge">
<title>20&#45;&gt;22</title>
<path fill="none" stroke="grey" stroke-width="2" d="M701.94,-227.24C634.15,-218.84 506.43,-202 387.52,-180.01"/>
<polygon fill="grey" stroke="grey" stroke-width="2" points="387.98,-176.54 377.51,-178.14 386.7,-183.42 387.98,-176.54"/>
</g>
<!-- 23 -->
<g id="node24" class="node">
<title>23</title>
<path fill="none" stroke="#56a9d8" stroke-width="2" d="M512.5,-180C512.5,-180 407.5,-180 407.5,-180 401.5,-180 395.5,-174 395.5,-168 395.5,-168 395.5,-156 395.5,-156 395.5,-150 401.5,-144 407.5,-144 407.5,-144 512.5,-144 512.5,-144 518.5,-144 524.5,-150 524.5,-156 524.5,-156 524.5,-168 524.5,-168 524.5,-174 518.5,-180 512.5,-180"/>
<text text-anchor="middle" x="460" y="-165" font-family="sans" font-size="10.00">calculate_NucDiversity</text>
<text text-anchor="middle" x="460" y="-154" font-family="sans" font-size="10.00">WindowSize: 100</text>
</g>
<!-- 20&#45;&gt;23 -->
<g id="edge37" class="edge">
<title>20&#45;&gt;23</title>
<path fill="none" stroke="grey" stroke-width="2" d="M701.79,-221.36C656.24,-210.37 587.25,-193.72 534.61,-181.01"/>
<polygon fill="grey" stroke="grey" stroke-width="2" points="535.19,-177.55 524.65,-178.6 533.54,-184.35 535.19,-177.55"/>
</g>
<!-- 27 -->
<g id="node28" class="node">
<title>27</title>
<path fill="none" stroke="#d8ac56" stroke-width="2" d="M713.5,-108C713.5,-108 560.5,-108 560.5,-108 554.5,-108 548.5,-102 548.5,-96 548.5,-96 548.5,-84 548.5,-84 548.5,-78 554.5,-72 560.5,-72 560.5,-72 713.5,-72 713.5,-72 719.5,-72 725.5,-78 725.5,-84 725.5,-84 725.5,-96 725.5,-96 725.5,-102 719.5,-108 713.5,-108"/>
<text text-anchor="middle" x="637" y="-93" font-family="sans" font-size="10.00">calculate_NucDiversity_SlideBy1</text>
<text text-anchor="middle" x="637" y="-82" font-family="sans" font-size="10.00">WindowSize: 25</text>
</g>
<!-- 20&#45;&gt;27 -->
<g id="edge41" class="edge">
<title>20&#45;&gt;27</title>
<path fill="none" stroke="grey" stroke-width="2" d="M736.37,-215.87C716.6,-191.03 679.85,-144.85 657.01,-116.14"/>
<polygon fill="grey" stroke="grey" stroke-width="2" points="659.64,-113.83 650.68,-108.19 654.17,-118.19 659.64,-113.83"/>
</g>
<!-- 28 -->
<g id="node29" class="node">
<title>28</title>
<path fill="none" stroke="#d8ac56" stroke-width="2" d="M908.5,-108C908.5,-108 755.5,-108 755.5,-108 749.5,-108 743.5,-102 743.5,-96 743.5,-96 743.5,-84 743.5,-84 743.5,-78 749.5,-72 755.5,-72 755.5,-72 908.5,-72 908.5,-72 914.5,-72 920.5,-78 920.5,-84 920.5,-84 920.5,-96 920.5,-96 920.5,-102 914.5,-108 908.5,-108"/>
<text text-anchor="middle" x="832" y="-93" font-family="sans" font-size="10.00">calculate_NucDiversity_SlideBy1</text>
<text text-anchor="middle" x="832" y="-82" font-family="sans" font-size="10.00">WindowSize: 50</text>
</g>
<!-- 20&#45;&gt;28 -->
<g id="edge42" class="edge">
<title>20&#45;&gt;28</title>
<path fill="none" stroke="grey" stroke-width="2" d="M750.41,-215.73C751.56,-196.86 755.58,-166.35 769,-144 775.79,-132.69 785.88,-122.64 796,-114.42"/>
<polygon fill="grey" stroke="grey" stroke-width="2" points="798.27,-117.1 804.06,-108.23 794,-111.54 798.27,-117.1"/>
</g>
<!-- 29 -->
<g id="node30" class="node">
<title>29</title>
<path fill="none" stroke="#d8ac56" stroke-width="2" d="M942.5,-180C942.5,-180 789.5,-180 789.5,-180 783.5,-180 777.5,-174 777.5,-168 777.5,-168 777.5,-156 777.5,-156 777.5,-150 783.5,-144 789.5,-144 789.5,-144 942.5,-144 942.5,-144 948.5,-144 954.5,-150 954.5,-156 954.5,-156 954.5,-168 954.5,-168 954.5,-174 948.5,-180 942.5,-180"/>
<text text-anchor="middle" x="866" y="-165" font-family="sans" font-size="10.00">calculate_NucDiversity_SlideBy1</text>
<text text-anchor="middle" x="866" y="-154" font-family="sans" font-size="10.00">WindowSize: 100</text>
</g>
<!-- 20&#45;&gt;29 -->
<g id="edge43" class="edge">
<title>20&#45;&gt;29</title>
<path fill="none" stroke="grey" stroke-width="2" d="M778.38,-215.88C793.54,-206.72 812.41,-195.34 828.74,-185.48"/>
<polygon fill="grey" stroke="grey" stroke-width="2" points="830.76,-188.35 837.51,-180.19 827.14,-182.36 830.76,-188.35"/>
</g>
<!-- 21&#45;&gt;20 -->
<g id="edge32" class="edge">
<title>21&#45;&gt;20</title>
<path fill="none" stroke="grey" stroke-width="2" d="M854.24,-287.88C835.78,-278.51 812.72,-266.81 792.98,-256.8"/>
<polygon fill="grey" stroke="grey" stroke-width="2" points="794.39,-253.59 783.89,-252.19 791.22,-259.83 794.39,-253.59"/>
</g>
<!-- 22&#45;&gt;0 -->
<g id="edge8" class="edge">
<title>22&#45;&gt;0</title>
<path fill="none" stroke="grey" stroke-width="2" d="M317.22,-143.99C323.34,-123.25 336.79,-88.88 362,-72 432.61,-24.73 696.23,-19.25 794.64,-18.89"/>
<polygon fill="grey" stroke="grey" stroke-width="2" points="794.73,-22.39 804.72,-18.86 794.71,-15.39 794.73,-22.39"/>
</g>
<!-- 25 -->
<g id="node26" class="node">
<title>25</title>
<path fill="none" stroke="#59d856" stroke-width="2" d="M276.5,-108C276.5,-108 151.5,-108 151.5,-108 145.5,-108 139.5,-102 139.5,-96 139.5,-96 139.5,-84 139.5,-84 139.5,-78 145.5,-72 151.5,-72 151.5,-72 276.5,-72 276.5,-72 282.5,-72 288.5,-78 288.5,-84 288.5,-84 288.5,-96 288.5,-96 288.5,-102 282.5,-108 276.5,-108"/>
<text text-anchor="middle" x="214" y="-87.5" font-family="sans" font-size="10.00">IncludeAllWindows_NucDiv</text>
</g>
<!-- 22&#45;&gt;25 -->
<g id="edge39" class="edge">
<title>22&#45;&gt;25</title>
<path fill="none" stroke="grey" stroke-width="2" d="M288.78,-143.88C276.08,-134.89 260.34,-123.76 246.58,-114.03"/>
<polygon fill="grey" stroke="grey" stroke-width="2" points="248.5,-111.11 238.31,-108.19 244.46,-116.82 248.5,-111.11"/>
</g>
<!-- 23&#45;&gt;0 -->
<g id="edge9" class="edge">
<title>23&#45;&gt;0</title>
<path fill="none" stroke="grey" stroke-width="2" d="M413.48,-143.85C397.75,-135.56 381.92,-123.88 373,-108 365.16,-94.05 362.35,-83.94 373,-72 400.96,-40.63 690.7,-25.1 794.92,-20.5"/>
<polygon fill="grey" stroke="grey" stroke-width="2" points="795.14,-24 804.98,-20.07 794.84,-17 795.14,-24"/>
</g>
<!-- 26 -->
<g id="node27" class="node">
<title>26</title>
<path fill="none" stroke="#59d856" stroke-width="2" d="M518.5,-108C518.5,-108 393.5,-108 393.5,-108 387.5,-108 381.5,-102 381.5,-96 381.5,-96 381.5,-84 381.5,-84 381.5,-78 387.5,-72 393.5,-72 393.5,-72 518.5,-72 518.5,-72 524.5,-72 530.5,-78 530.5,-84 530.5,-84 530.5,-96 530.5,-96 530.5,-102 524.5,-108 518.5,-108"/>
<text text-anchor="middle" x="456" y="-87.5" font-family="sans" font-size="10.00">IncludeAllWindows_NucDiv</text>
</g>
<!-- 23&#45;&gt;26 -->
<g id="edge40" class="edge">
<title>23&#45;&gt;26</title>
<path fill="none" stroke="grey" stroke-width="2" d="M459.01,-143.7C458.57,-135.98 458.04,-126.71 457.55,-118.11"/>
<polygon fill="grey" stroke="grey" stroke-width="2" points="461.04,-117.89 456.98,-108.1 454.05,-118.29 461.04,-117.89"/>
</g>
<!-- 24&#45;&gt;0 -->
<g id="edge10" class="edge">
<title>24&#45;&gt;0</title>
<path fill="none" stroke="grey" stroke-width="2" d="M1025.7,-71.97C976.72,-58.57 910.13,-40.36 869.16,-29.16"/>
<polygon fill="grey" stroke="grey" stroke-width="2" points="869.89,-25.73 859.32,-26.47 868.04,-32.48 869.89,-25.73"/>
</g>
<!-- 25&#45;&gt;0 -->
<g id="edge11" class="edge">
<title>25&#45;&gt;0</title>
<path fill="none" stroke="grey" stroke-width="2" d="M288.81,-74.07C293.27,-73.33 297.69,-72.63 302,-72 486.02,-45.08 708,-27.75 794.73,-21.55"/>
<polygon fill="grey" stroke="grey" stroke-width="2" points="795.14,-25.03 804.87,-20.84 794.64,-18.05 795.14,-25.03"/>
</g>
<!-- 26&#45;&gt;0 -->
<g id="edge12" class="edge">
<title>26&#45;&gt;0</title>
<path fill="none" stroke="grey" stroke-width="2" d="M530.64,-73.81C533.8,-73.2 536.93,-72.59 540,-72 631.51,-54.44 739.45,-35.24 794.94,-25.48"/>
<polygon fill="grey" stroke="grey" stroke-width="2" points="795.75,-28.89 804.99,-23.71 794.54,-22 795.75,-28.89"/>
</g>
<!-- 27&#45;&gt;0 -->
<g id="edge13" class="edge">
<title>27&#45;&gt;0</title>
<path fill="none" stroke="grey" stroke-width="2" d="M684.7,-71.88C718.79,-59.64 763.97,-43.42 795.26,-32.19"/>
<polygon fill="grey" stroke="grey" stroke-width="2" points="796.67,-35.4 804.9,-28.73 794.31,-28.81 796.67,-35.4"/>
</g>
<!-- 28&#45;&gt;0 -->
<g id="edge14" class="edge">
<title>28&#45;&gt;0</title>
<path fill="none" stroke="grey" stroke-width="2" d="M832,-71.7C832,-63.98 832,-54.71 832,-46.11"/>
<polygon fill="grey" stroke="grey" stroke-width="2" points="835.5,-46.1 832,-36.1 828.5,-46.1 835.5,-46.1"/>
</g>
<!-- 29&#45;&gt;0 -->
<g id="edge15" class="edge">
<title>29&#45;&gt;0</title>
<path fill="none" stroke="grey" stroke-width="2" d="M896.77,-143.91C909.54,-135.02 923,-122.88 930,-108 936.81,-93.52 938.19,-85.74 930,-72 916.77,-49.81 890.68,-36.35 868.74,-28.55"/>
<polygon fill="grey" stroke="grey" stroke-width="2" points="869.6,-25.15 859.01,-25.35 867.42,-31.8 869.6,-25.15"/>
</g>
</g>
</svg>
