<svg class="main-svg" xmlns="http://www.w3.org/2000/svg" xmlns:xlink="http://www.w3.org/1999/xlink" width="1000" height="500" style="" viewBox="0 0 1000 500"><rect x="0" y="0" width="1000" height="500" style="fill: rgb(255, 255, 255); fill-opacity: 1;"/><defs id="defs-f90e68"><g class="clips"><clipPath id="clipf90e68geo"><rect x="75.40244331112552" y="29.5" width="849.1951133777488" height="440.99999999999994"/></clipPath></g><g class="gradients"/></defs><g class="bglayer"/><g class="layer-below"><g class="imagelayer"/><g class="shapelayer"/></g><g class="cartesianlayer"/><g class="polarlayer"/><g class="ternarylayer"/><g class="geolayer"><g class="geo geo" clip-path="url('#clipf90e68geo')"><g class="layer bg"><rect x="75.40244331112552" y="29.5" width="849.1951133777488" height="440.99999999999994" style="pointer-events: all; fill: rgb(255, 255, 255); fill-opacity: 1;"/></g><g class="layer land"><path d="M741.6396452437557,469.99999999999994L739.628859515037,464.9644532592855L734.3798043363765,460.09110239535534L737.0615622224475,449.4292468077839L737.0615622224475,449.4292468077839L741.14314522099,450.03854509671805L746.7177580667387,464.05073189411297L746.923253174746,469.99999999999994L741.6396452437557,469.99999999999994ZM724.9729585541946,422.6150129890481L731.4986480677037,421.39597920077995L740.6176152865083,422.00549795964145L741.2851215079233,426.27202197134665L726.2107905680766,429.0146828022676ZM741.4877550720429,418.3483312975235L752.9042845371223,425.96727669034453L750.8474892488276,438.1562317725182L748.2336167826071,436.0232986561089L747.894772686498,427.1862516618841L741.5699165332851,420.48169418371305ZM924.0975566888744,97.33691886853994L922.8255746894049,98.80807469475792L918.2979824273325,99.99849908315537L900.9643068159041,92.86038737037507L896.9968393310395,87.51391658224895L900.9996268630788,82.47022722227052L900.9996268630788,82.47022722227052L906.7312269099727,90.4834139803113L916.3615994406213,92.56319936594036L924.0975566888744,92.37352716815977L924.0975566888744,97.33691886853994ZM924.0975566888744,48.54637907444819L918.5226199697983,48.802231660510984L901.1752318644114,43.512368575585356L888.1461985862225,35.884833988071136L888.1461985862225,35.884833988071136L892.5242422864683,34.4198460390827L910.0986284697044,38.523321869041524L924.0264130676496,45.56864812331037L924.0975566888744,45.79997374882193L924.0975566888744,48.54637907444819ZM109.77060900772733,30L112.59242232407667,34.71279548192422L112.59242232407667,34.71279548192422L117.96047308689106,42.33786416028033L129.94484216501348,49.096331415836175L133.8443381937501,58.22461278648859L127.1039515860237,60.28879216323594L106.83013724804687,52.9216954575503L103.9206798035878,47.33207613495779L93.25969098733526,41.457231716121896L91.65387085124468,36.764114915964456L79.25391588436975,33.83401955443742L77.65075054807546,30L109.77060900772733,30ZM924.0975566888744,32.57932069460083L923.4298375440957,32.66265691077558L902.5456131738698,30L924.0975566888744,30ZM863.8327539896036,30L863.5132144051043,30.02851382247991L854.4915339594971,41.750752396068606L839.2892456002235,49.096331415836175L823.255213123307,70.62554174736852L809.9862629582215,86.02989199501121L820.4080423864888,83.06330782835357L829.5689089555167,72.20539784463551L838.9085581004761,61.468803791566756L851.383549093719,54.611363771910646L864.0267519838931,47.92006958984348L883.1768527387205,46.45025836617913L895.3355011407796,54.39400405810386L884.7815032027756,65.30623176761469L891.2860084665269,83.06330782835357L897.097685841906,95.5359253882308L915.0584504262367,103.86938358710381L924.0975566888744,102.85664241364984L924.0975566888744,118.64655774064516L924.0975566888744,118.64655774064516L916.3987912885847,121.47435036207798L904.0260968610119,128.35298338989958L890.7570178915341,140.33542250161986L880.6192982795433,138.83630079955265L878.5433508025678,124.76307472701262L899.5642296151893,111.32183412676648L878.8949140541154,111.6201586740799L864.543507795674,113.70891019366309L867.508778945476,119.08378829825483L854.229783026113,127.15609368112939L841.1004520441579,132.8435437376769L827.8609944486304,137.93700503921957L821.2860367614826,148.73718528449183L820.1083598546456,151.44009978719646L820.4564351618643,160.45773085272992L826.0285972611641,169.18586184174603L831.3493262549966,169.788187945505L829.3307127689579,163.46623167292694L833.5193129852333,167.37917783760656L833.0077579641984,172.1979776173722L824.1477163462281,174.909907163311L817.8625779821477,174.30717317753226L808.5307247608979,177.32131172766344L802.8487002549939,178.22578000846397L794.7638525614939,179.13035176384756L784.0958677184911,183.95645515727404L803.5278368876454,180.63819952840925L807.6453665862537,183.95645515727404L789.2765588118916,188.78538503847778L781.1183859399839,189.0872847792673L780.9595445505872,186.97421129901784L777.4466417940994,191.50286367099727L781.3668592945312,192.40887881380547L779.359427363572,204.4977606620937L770.5710919500011,217.20735304822222L769.3126963016912,212.96907067372968L766.3456008149558,212.06109048194776L761.7046629152655,207.82491825323007L764.7334718303701,216.90456246656174L768.3307185312397,219.93284932054848L769.2415116126001,226.29493758405272L765.3022338113734,232.96370720494792L758.3423851455921,246.31180459345273L757.328872496457,245.7047857177721L760.5122867182615,234.17660313558247L753.3019349267529,227.8102401493959L750.9683985481222,213.87713035914487L749.0014322583913,221.14439852083035L752.0872479880479,231.7509300034916L743.6713658360757,229.32573710216127L752.7417021382294,234.47984551468357L754.2027849904273,250.56165944750228L758.1861528421139,251.77613130495865L760.0016275766507,257.546202044706L762.9741487449915,274.56446453105866L755.3193458737503,287.0339885435021L741.2822912156296,291.9020771819436L732.8992786051074,301.94553875674103L726.0361479084472,303.1631845220427L719.3913230270232,309.2521748879036L717.6693968907789,315.03781193339216L702.7506493436854,326.00264234253154L695.1067878427059,333.9234776244741L689.0055499094126,343.9786022916238L687.4309448086211,355.8638969433747L690.3436869548084,367.75066901351016L695.3577489637391,382.3816353170736L702.2979896521412,394.26949015070613L702.5470776317901,401.58493086027136L709.7598426554468,421.0912184390582L709.6340230127319,432.6714275414485L709.3324892385987,439.0703273376818L706.10463357258,449.4292468077839L702.1081043833938,451.5617653774654L694.9485979086331,449.7338966743863L692.6998660087361,442.1172294791505L687.011521270333,438.1562317725182L679.0146303147933,423.8340316528497L672.0810471388427,410.72885335666575L669.8759419142871,404.0233585966404L672.5809485780649,393.0502324902048L668.2831729367788,383.6009056375744L656.8458816004415,369.5794930934134L651.7616020800788,366.8362642684636L637.9318755090807,374.45643755836244L635.4030967049525,373.54200281492547L628.2094585137921,365.9218647569429L619.6065016491535,361.6547445119992L603.6410711798819,363.788287825576L591.6013170743975,361.95953421792944L581.1104465945663,362.87390779167157L575.1403120611534,365.3122681283018L577.7114140189473,370.1891051435929L577.804434122017,376.89494402171044L580.3597130055891,380.2479158314618L577.8836717333529,382.6864527947279L572.8279721172597,379.9430992816386L567.3473538043593,383.29608796412975L557.2987850866649,382.6864527947279L547.1837455206035,373.8468140495948L534.6646913647443,375.9805019375882L524.6177349249027,372.0179522325181L516.1021300376383,373.2371919398291L504.0753915721692,377.1997585679537L491.5172751238476,389.6972570081703L477.91745356176233,397.01280395897646L469.8231396837933,405.24256035588445L466.7577263206964,412.8623547081598L466.6961630314767,424.443535184702L467.1596565217002,432.6714275414485L469.66524934355266,438.1562317725182L469.6638452197541,438.4609315507253L464.52005447812866,453.0849488411964L461.9146007121473,465.2690237281293L461.6784780146539,469.99999999999994L327.4627160465778,469.99999999999994L327.4627160465778,469.99999999999994L317.57572626757985,460.7002939622182L311.2599692100909,450.03854509671805L299.2882998939308,443.03127464434596L296.87464659964115,439.0703273376818L299.22136114081957,428.70994693454105L292.2676237616255,424.7482854783384L283.95545413432023,416.5197011820245L280.8461033002092,404.6329605365923L273.8479875438957,403.1089518445564L265.63114472069356,394.26949015070613L259.4308508232464,386.0394479556728L259.14603056684155,380.85754936729774L252.18277445504793,368.0554717100695L247.78248913290633,354.9495826032562L248.58430963019535,348.54965189863367L238.93880542901832,341.84555280860036L233.92441243695544,342.4549881680696L226.68957952792277,337.884374267676L223.827965888297,344.8927879205688L225.91091658705307,352.8162180730236L226.26387618662324,365.61706613111573L230.9295061912756,372.62757130777896L240.9256461827344,384.2105411163584L242.75809540740835,388.17317132460767L244.71475835041508,389.39244009824347L246.47509358739052,395.18393071170436L249.0038065506629,394.87911746371725L251.5671503705793,405.85215799359577L255.42835355460826,410.1192753252114L258.21614857234874,416.21492661293377L266.48277146309886,424.7482854783384L270.97990791612574,440.59379456347057L274.78831480117435,447.90597597940814L278.59042063351455,455.8265844507183L278.8090203627454,464.9644532592855L285.40274639897893,465.57359253062975L288.8224521310168,469.99999999999994L274.73368801930303,469.99999999999994L274.73368801930303,469.99999999999994L274.58564128050136,469.8373786358877L264.67943660958565,461.6140692601161L257.7104186460426,457.34966177265545L258.6506744223735,445.1639997483958L256.45123086899025,436.0232986561089L250.07818213745247,430.53834587403L240.76018777931364,423.2245242372599L238.65054030623747,425.3577830894241L235.30233493229116,420.7864567645173L226.88562769272193,416.824474938706L219.25168182901342,407.07134648224235L220.33021740378007,405.5473594512323L225.83313522442347,406.46175338913514L231.64984542569806,400.3657058764938L232.49769735015548,392.74541749182606L222.0195650110909,380.55273252979435L214.22002182302265,375.9805019375882L209.76194200525418,365.3122681283018L204.8535120645027,354.34004470119737L199.64137041734034,340.62670026683315L194.5759888416348,325.3934052421803L193.11635420813292,316.8650606201006L184.8221916104976,307.1208877816006L178.53136775413674,304.9897504843144L177.3771785777929,300.11916987716825L169.5343765853986,299.20603123713965L164.91880906715818,294.6408129063998L152.19881577632862,293.1192553960109L148.95142835025712,290.380690851384L148.17142791393474,281.25450166566134L136.27212701216945,264.2299521812681L127.06671478715322,240.5462025110745L127.8804510867833,236.90604624692605L122.0771785502422,231.1445863407141L113.2015050578151,217.20735304822222L112.64222765154886,203.28816735338683L106.33119994863404,194.221188703322L110.67356776824255,180.33660727079734L111.74522818887414,165.87394800590573L109.32118826537885,153.24266085300735L115.87376845151266,137.33754882348705L122.65852165118866,107.4451909762904L123.0276167945861,85.13971089200606L120.59681536227089,71.21699670657267L117.88448867923375,63.53465897060323L120.16312239265022,60.28879216323594L137.9737287532804,65.89692723099108L143.08113754547395,81.28430395570956L146.8320725233176,77.13609349788669L146.1421594664037,63.53465897060323L143.62399918649686,50.27295839458827L141.81680604508358,49.97876750891669L130.5462123635392,41.977890073292315L119.0932872092842,34.126920721326314L114.29562471785263,30L863.8327539896036,30Z" style="stroke: none; fill: rgb(243, 243, 243); fill-opacity: 1;"/></g><g class="layer lakes"><path d="M746.8404416893065,132.8435437376769L748.2739698685629,139.4359052947966L738.685672907984,144.8349736052254L727.6726555021891,143.6347757288454L717.1804121356882,143.03476293966878L710.658419787777,145.135058819537L706.4340945612148,146.0353998394503L701.0976532113827,144.23484601938526L704.5565764100161,138.5365207224928L708.7155221028249,136.73815228313197L718.0442463618481,134.34116703775305L728.7794557939852,131.94515326604278L734.6929445739788,135.239923377379L738.2074668629525,131.34630318245434L742.3157454397383,129.25081564257925L745.2431024136954,130.44814392670594ZM657.819082171471,164.66998902812713L665.0317295538453,165.57293944637365L674.8215493740178,160.45773085272992L680.3045758473476,155.64683383565978L684.0876354634267,155.04570996000234L691.321120477239,156.54861974061532L695.0026754034159,154.14412474399103L701.077375351118,152.04089891030367L712.3807925948462,149.93834233686607L712.9491543983759,151.44009978719646L702.0901200094783,161.36014625191467L692.3203712958484,166.17496906744054L685.7495317240706,168.58358465755907L677.836137616749,173.1018471566549L668.3641463111501,175.51268820586085L661.6110142480844,174.608534276142L653.3085082189059,170.99298612347593ZM569.6144462184143,66.48770793754261L574.5484591352076,59.99384373189423L581.8757645336894,57.34029399331962L584.5272789760256,53.21611232454927L587.2335184171976,51.15566724685698L599.3389396208618,54.39400405810386L608.1349248752343,54.98308411411938L611.4482263725466,57.045565191702735L615.9854345404221,66.48770793754261L630.4656106964742,68.85167892395077L628.3507572093472,73.58364759193L633.6761925547291,78.320893826462L632.0865625676247,84.5463546248028L637.3122499833528,86.62344355184689L635.226999164471,92.2660302594337L630.9922972575864,91.67174884758992L627.987724074876,86.92024849614995L615.4376987679353,88.40456380230114L603.8803200293875,91.96888007770133L594.8011493125381,85.73314543618835L587.2739521554977,83.656467463264L591.209907895535,75.06347527108915L579.7254059610357,80.39507055379988L569.598628387605,85.73314543618835L559.8791470158841,89.88936095447218L551.8381728598655,84.24970591220176L538.8220246433173,87.81077967033468L538.7917582604658,85.43641839290171L547.5461250836803,78.320893826462L556.7331521318956,71.80853498476813ZM700.7130270504566,422.6150129890481L697.6614644871315,422.00549795964145L697.5368243067269,418.04356170498244L700.5866584319816,418.65310003695663ZM271.24437955903124,177.0198454080264L271.5175385376442,180.33660727079734L270.7383810918859,185.16342646077533L264.2962595495782,180.63819952840925L263.8547975950106,180.03502634144672L261.966222278783,172.1979776173722L265.58484292527305,175.51268820586085L267.886498892008,177.0198454080264L270.85933380294546,175.51268820586085ZM666.1888578463786,149.63803225487095L665.3798826449054,142.73477817253422L662.542034149063,133.14303788262612L657.2465191192211,131.34630318245434L649.5311284031056,138.83630079955265L647.1455106040157,138.5365207224928L646.0144165395152,134.34116703775305L652.819926727047,127.75450702487922L653.8878104278772,120.27893801200196L652.591285454092,112.81362844690773L642.4114951990493,106.25297196430506L631.4692564620813,102.97583221771004L633.2453743287028,100.59382074858706L633.7270529426648,100.8915088553274L645.3831640450983,99.40325032708324L638.5143419568645,92.56319936594036L640.7442374965314,90.1863779110322L643.7288754852351,94.04932783053778L653.6597454883428,96.13069500598579L663.4939691995967,96.13069500598579L673.8963071675953,97.91544882237326L685.8050393313954,101.18921510903249L690.3322292536573,106.25297196430506L699.5672725045627,118.78504210532526L695.6623467418115,124.46401916449429L685.1327837460806,122.0721544965661L677.9636576153357,111.91850040638815L679.9558376506185,122.37108096113445L674.3065933551305,131.64572051705795L675.1859099215931,139.4359052947966L674.4826609990639,144.23484601938526ZM633.2453743287028,100.59382074858706L631.4692564620813,102.97583221771004L629.8484177312075,109.23404571420701L627.0981539477696,111.02352679109151L625.0579368110629,119.08378829825483L623.42592276819,113.41046591063832L618.3996990969437,117.59022307060559L615.2895908016104,122.96898255280291L612.2682148171482,131.34630318245434L611.5502410973467,138.23675546039738L616.6528269004384,148.73718528449183L616.5378043027072,159.55543201308694L611.5412881213483,167.68026103728062L608.7433742279864,170.0893692806129L604.9656523753322,171.89671170646682L600.654456156836,171.89671170646682L599.1925802884527,170.99298612347593L595.5985956332701,161.96182093926006L595.484601455398,157.7511867236625L595.8463851959777,153.54313529384638L593.7200081182995,145.4351582804818L595.8343927242495,136.13881562614995L598.8056462719744,124.46401916449429L605.0034810722865,111.6201586740799L603.1210657253323,111.6201586740799L593.5487053710168,122.37108096113445L592.0816043406362,120.57776654353324L597.0934247249119,114.60434492809884L604.2780809285202,103.86938358710381L613.144200858359,102.38022105781988L623.3383285181498,99.10565335705144Z" style="stroke: none; fill: rgb(255, 255, 255); fill-opacity: 1;"/></g><g class="layer countries"><path d="M924.0975566888744,32.57932069460083L923.4298375440957,32.66265691077558L902.5456131738698,30L924.0975566888744,30ZM863.8327539896036,30L863.5132144051043,30.02851382247991L854.4915339594971,41.750752396068606L839.2892456002235,49.096331415836175L823.255213123307,70.62554174736852L809.9862629582215,86.02989199501121L820.4080423864888,83.06330782835357L829.5689089555167,72.20539784463551L838.9085581004761,61.468803791566756L851.383549093719,54.611363771910646L864.0267519838931,47.92006958984348L883.1768527387205,46.45025836617913L895.3355011407796,54.39400405810386L884.7815032027756,65.30623176761469L891.2860084665269,83.06330782835357L897.097685841906,95.5359253882308L915.0584504262367,103.86938358710381L924.0975566888744,102.85664241364984L924.0975566888744,118.64655774064516L924.0975566888744,118.64655774064516L916.3987912885847,121.47435036207798L904.0260968610119,128.35298338989958L890.7570178915341,140.33542250161986L880.6192982795433,138.83630079955265L878.5433508025678,124.76307472701262L899.5642296151893,111.32183412676648L878.8949140541154,111.6201586740799L864.543507795674,113.70891019366309L855.035061880739,104.46517394086948L852.4444244718593,81.87722585979952L845.8381368553578,77.13609349788669L837.7617701667132,79.80234823514866L832.6422468055894,75.65554990145438L824.210031278842,88.1076620859701L821.8008740036329,100.8915088553274L817.8599902820936,108.33953969263507L812.481486313975,111.02352679109151L808.3330676237929,111.91850040638815L807.2917230621697,115.79849464707729L783.2597079175723,115.79849464707729L763.4930015813902,116.09707417457753L758.0757140132117,119.08378829825483L744.81383402152,131.04690128840434L743.4810806158581,132.244601403243L739.6887306136255,138.83630079955265L727.3513745216595,138.83630079955265L714.5395047338488,138.83630079955265L709.0116241868628,141.53498388906542L711.1153088977017,144.8349736052254L712.3807925948462,149.93834233686607L712.4728912630148,151.44009978719646L695.7978150865464,159.85618530010765L682.0921787947478,162.5635469300488L667.210613562826,171.29421593498478L663.8580198071802,171.29421593498478L658.9622752120227,168.88471712237606L657.420630394692,166.47600260616764L657.819082171471,164.66998902812713L660.428410736432,158.9539645431654L666.1888578463786,149.63803225487095L669.5057422422018,139.73572966112317L666.414509394514,125.36123388127066L662.8117579283694,110.12870832042677L648.8060329588682,102.38022105781988L650.0710532525178,99.40325032708324L648.1110588360209,97.61794365910964L644.3628944368492,97.61794365910964L641.897864837802,94.94123028867762L640.7851140815612,91.07754334961874L638.5143419568645,92.56319936594036L635.226999164471,92.2660302594337L635.6160289696952,90.4834139803113L632.7470239183054,88.99842502962906L631.1535007569927,84.5463546248028L621.1417804657333,79.20970612640895L610.2334414358581,73.87957200380617L597.4665480301288,67.3740383612211L585.2334481956636,61.468803791566756L573.7803800952257,66.19230694221346L569.6144462184143,66.48770793754261L553.7664657607548,62.058939975161366L543.1480286467148,64.12509742409293L530.5849812568596,59.10912960495216L517.6177943406939,56.456173941732345L508.835051819895,55.57225334746954L504.6725553370657,52.62730106994809L502.3577344058573,43.806053045228396L498.21732276630337,43.806053045228396L497.7521164431949,50.27295839458827L471.46917024054926,50.27295839458827L449.57039438785665,50.06640335368559L427.66425990280675,50.27295839458827L405.99907147838155,50.07072937672547L384.3204538844087,50.27295839458827L364.96177473217995,50.11147101259144L345.58769105945737,50.27295839458827L326.4615257013428,50.11529332749228L307.3160325538506,50.27295839458827L288.42225539300114,50.11906985360952L269.5054783675887,50.27295839458827L249.92315031242003,50.107602908447916L230.31161122329297,50.27295839458827L217.86179460098703,50.27295839458827L198.97287930200093,50.11906985360952L180.05124041472493,50.27295839458827L161.85467856024906,50.130124703767365L143.62399918649686,50.27295839458827L143.62399918649686,50.27295839458827L141.81680604508358,49.97876750891669L130.5462123635392,41.977890073292315L119.0932872092842,34.126920721326314L114.29562471785263,30L863.8327539896036,30ZM109.77060900772733,30L112.59242232407667,34.71279548192422L112.59242232407667,34.71279548192422L117.96047308689106,42.33786416028033L129.94484216501348,49.096331415836175L133.8443381937501,58.22461278648859L127.1039515860237,60.28879216323594L106.83013724804687,52.9216954575503L103.9206798035878,47.33207613495779L93.25969098733526,41.457231716121896L91.65387085124468,36.764114915964456L79.25391588436975,33.83401955443742L77.65075054807546,30L109.77060900772733,30ZM924.0975566888744,48.54637907444819L918.5226199697983,48.802231660510984L901.1752318644114,43.512368575585356L888.1461985862225,35.884833988071136L888.1461985862225,35.884833988071136L892.5242422864683,34.4198460390827L910.0986284697044,38.523321869041524L924.0264130676496,45.56864812331037L924.0975566888744,45.79997374882193L924.0975566888744,48.54637907444819ZM924.0975566888744,97.33691886853994L922.8255746894049,98.80807469475792L918.2979824273325,99.99849908315537L900.9643068159041,92.86038737037507L896.9968393310395,87.51391658224895L900.9996268630788,82.47022722227052L900.9996268630788,82.47022722227052L906.7312269099727,90.4834139803113L916.3615994406213,92.56319936594036L924.0975566888744,92.37352716815977L924.0975566888744,97.33691886853994ZM143.62399918649686,50.27295839458827L161.85467856024906,50.130124703767365L180.05124041472493,50.27295839458827L198.97287930200093,50.11906985360952L217.86179460098703,50.27295839458827L230.31161122329297,50.27295839458827L249.92315031242003,50.107602908447916L269.5054783675887,50.27295839458827L288.42225539300114,50.11906985360952L307.3160325538506,50.27295839458827L326.4615257013428,50.11529332749228L345.58769105945737,50.27295839458827L364.96177473217995,50.11147101259144L384.3204538844087,50.27295839458827L405.99907147838155,50.07072937672547L427.66425990280675,50.27295839458827L449.57039438785665,50.06640335368559L471.46917024054926,50.27295839458827L497.7521164431949,50.27295839458827L498.21732276630337,43.806053045228396L502.3577344058573,43.806053045228396L504.6725553370657,52.62730106994809L508.835051819895,55.57225334746954L517.6177943406939,56.456173941732345L530.5849812568596,59.10912960495216L543.1480286467148,64.12509742409293L553.7664657607548,62.058939975161366L569.6144462184143,66.48770793754261L573.7803800952257,66.19230694221346L585.2334481956636,61.468803791566756L597.4665480301288,67.3740383612211L610.2334414358581,73.87957200380617L621.1417804657333,79.20970612640895L631.1535007569927,84.5463546248028L632.7470239183054,88.99842502962906L635.6160289696952,90.4834139803113L635.226999164471,92.2660302594337L638.5143419568645,92.56319936594036L640.7851140815612,91.07754334961874L641.897864837802,94.94123028867762L644.3628944368492,97.61794365910964L648.1110588360209,97.61794365910964L650.0710532525178,99.40325032708324L648.8060329588682,102.38022105781988L662.8117579283694,110.12870832042677L666.414509394514,125.36123388127066L669.5057422422018,139.73572966112317L666.1888578463786,149.63803225487095L660.428410736432,158.9539645431654L657.819082171471,164.66998902812713L657.420630394692,166.47600260616764L658.9622752120227,168.88471712237606L663.8580198071802,171.29421593498478L667.210613562826,171.29421593498478L682.0921787947478,162.5635469300488L695.7978150865464,159.85618530010765L712.4728912630148,151.44009978719646L712.3807925948462,149.93834233686607L711.1153088977017,144.8349736052254L709.0116241868628,141.53498388906542L714.5395047338488,138.83630079955265L727.3513745216595,138.83630079955265L739.6887306136255,138.83630079955265L743.4810806158581,132.244601403243L744.81383402152,131.04690128840434L758.0757140132117,119.08378829825483L763.4930015813902,116.09707417457753L783.2597079175723,115.79849464707729L807.2917230621697,115.79849464707729L808.3330676237929,111.91850040638815L812.481486313975,111.02352679109151L817.8599902820936,108.33953969263507L821.8008740036329,100.8915088553274L824.210031278842,88.1076620859701L832.6422468055894,75.65554990145438L837.7617701667132,79.80234823514866L845.8381368553578,77.13609349788669L852.4444244718593,81.87722585979952L855.035061880739,104.46517394086948L864.543507795674,113.70891019366309L867.508778945476,119.08378829825483L854.229783026113,127.15609368112939L841.1004520441579,132.8435437376769L827.8609944486304,137.93700503921957L821.6778596803117,147.8364637643216L820.1083598546456,151.44009978719646L820.4564351618643,160.45773085272992L826.0285972611641,169.18586184174603L831.3493262549966,169.788187945505L829.3307127689579,163.46623167292694L833.5193129852333,167.37917783760656L833.0077579641984,172.1979776173722L824.1477163462281,174.909907163311L817.8625779821477,174.30717317753226L808.5307247608979,177.32131172766344L802.8487002549939,178.22578000846397L794.7638525614939,179.13035176384756L784.0958677184911,183.95645515727404L803.5278368876454,180.63819952840925L807.6453665862537,183.95645515727404L789.2998754516121,189.0872847792673L781.1183859399839,189.0872847792673L780.9595445505872,186.97421129901784L777.4466417940994,191.50286367099727L781.3668592945312,192.40887881380547L779.359427363572,204.4977606620937L770.5710919500011,217.20735304822222L769.3126963016912,212.96907067372968L766.3456008149558,212.06109048194776L761.7046629152655,207.82491825323007L764.7334718303701,216.90456246656174L768.3307185312397,219.93284932054848L769.2415116126001,226.29493758405272L765.3022338113734,232.96370720494792L758.3423851455921,246.31180459345273L757.328872496457,245.7047857177721L760.5122867182615,234.17660313558247L753.3019349267529,227.8102401493959L750.9683985481222,213.87713035914487L749.0014322583913,221.14439852083035L752.0872479880479,231.7509300034916L743.1670165551848,229.02262228684515L752.7417021382294,234.47984551468357L754.2027849904273,250.56165944750228L758.1861528421139,251.77613130495865L760.0016275766507,257.546202044706L762.9741487449915,274.56446453105866L755.3193458737503,287.0339885435021L741.2822912156296,291.9020771819436L732.8992786051074,301.94553875674103L726.0361479084472,303.1631845220427L719.3913230270232,309.2521748879036L717.6693968907789,315.03781193339216L702.7506493436854,326.00264234253154L695.1067878427059,333.9234776244741L689.0055499094126,343.9786022916238L687.4309448086211,355.8638969433747L690.3436869548084,367.75066901351016L695.3577489637391,382.3816353170736L702.2979896521412,394.26949015070613L702.5470776317901,401.58493086027136L709.7598426554468,421.0912184390582L709.6340230127319,432.6714275414485L709.3324892385987,439.0703273376818L706.10463357258,449.4292468077839L702.1081043833938,451.5617653774654L694.9485979086331,449.7338966743863L692.6998660087361,442.1172294791505L687.011521270333,438.1562317725182L679.0146303147933,423.8340316528497L672.0810471388427,410.72885335666575L669.8759419142871,404.0233585966404L672.5809485780649,393.0502324902048L668.2831729367788,383.6009056375744L656.8458816004415,369.5794930934134L651.7616020800788,366.8362642684636L637.9318755090807,374.45643755836244L635.4030967049525,373.54200281492547L628.2094585137921,365.9218647569429L619.6065016491535,361.6547445119992L603.6410711798819,363.788287825576L591.6013170743975,361.95953421792944L581.1104465945663,362.87390779167157L575.1444765028266,365.61706613111573L577.7114140189473,370.1891051435929L577.804434122017,376.89494402171044L580.3597130055891,380.2479158314618L577.8836717333529,382.6864527947279L572.8279721172597,379.9430992816386L567.3473538043593,383.29608796412975L557.2987850866649,382.6864527947279L547.1837455206035,373.8468140495948L534.6646913647443,375.9805019375882L524.6177349249027,372.0179522325181L516.1021300376383,373.2371919398291L504.0753915721692,377.1997585679537L491.5172751238476,389.6972570081703L477.91745356176233,397.01280395897646L469.8231396837933,405.24256035588445L466.7577263206964,412.8623547081598L466.6961630314767,424.443535184702L467.1596565217002,432.6714275414485L469.66524934355266,438.1562317725182L464.5956266440347,438.7656300742636L454.4873730282336,435.10916619611044L443.39182945583707,429.9288839227341L439.41919321087914,422.00549795964145L436.5084692006937,410.1192753252114L428.5532663753618,400.3657058764938L423.64749421305163,390.3068904269869L416.7769262809831,378.72383475498316L407.35463116048027,372.0179522325181L395.823087541514,372.32276157059397L387.0370527414563,385.73463015973L375.5891061771419,380.85754936729774L368.18100635786993,375.6756884598396L364.9001756337732,366.2266639953681L360.62088039080913,357.3877733969929L352.8255381411243,350.07339922222513L345.49973608535345,344.58805797619334L340.69115184096927,338.79846837440846L316.78548646657794,338.79846837440846L316.5496022262222,345.50225195342273L305.57873236275475,345.50225195342273L278.1386859734878,345.8069860179405L246.80276273265716,333.9234776244741L226.8465551385592,325.69802269800914L228.02237393120402,322.3473540473217L210.54162072896105,324.17495757646793L194.5759888416348,325.3934052421803L193.11635420813292,316.8650606201006L184.8221916104976,307.1208877816006L178.53136775413674,304.9897504843144L177.3771785777929,300.11916987716825L169.5343765853986,299.20603123713965L164.91880906715818,294.6408129063998L152.19881577632862,293.1192553960109L148.95142835025712,290.380690851384L148.17142791393474,281.25450166566134L136.27212701216945,264.2299521812681L127.06671478715322,240.5462025110745L127.8804510867833,236.90604624692605L122.0771785502422,231.1445863407141L113.2015050578151,217.20735304822222L112.64222765154886,203.28816735338683L106.33119994863404,194.221188703322L110.67356776824255,180.33660727079734L111.74522818887414,165.87394800590573L109.32118826537885,153.24266085300735L115.87376845151266,137.33754882348705L119.48990313757429,122.37108096113445L122.65852165118866,107.4451909762904L123.0276167945861,85.13971089200606L120.59681536227089,71.21699670657267L117.88448867923375,63.53465897060323L120.16312239265022,60.28879216323594L137.9737287532804,65.89692723099108L143.08113754547395,81.28430395570956L146.8320725233176,77.13609349788669L146.1421594664037,63.53465897060323ZM724.9729585541946,422.6150129890481L731.4986480677037,421.39597920077995L740.6176152865083,422.00549795964145L741.2851215079233,426.27202197134665L726.2107905680766,429.0146828022676ZM741.4877550720429,418.3483312975235L752.9042845371223,425.96727669034453L750.8474892488276,438.1562317725182L748.2336167826071,436.0232986561089L747.894772686498,427.1862516618841L741.5699165332851,420.48169418371305ZM741.6396452437557,469.99999999999994L739.628859515037,464.9644532592855L734.3798043363765,460.09110239535534L737.0615622224475,449.4292468077839L737.0615622224475,449.4292468077839L741.14314522099,450.03854509671805L746.7177580667387,464.05073189411297L746.923253174746,469.99999999999994L741.6396452437557,469.99999999999994ZM327.4627160465778,469.99999999999994L317.57572626757985,460.7002939622182L311.2599692100909,450.03854509671805L299.2882998939308,443.03127464434596L296.87464659964115,439.0703273376818L299.22136114081957,428.70994693454105L292.2676237616255,424.7482854783384L283.95545413432023,416.5197011820245L280.8461033002092,404.6329605365923L273.8479875438957,403.1089518445564L265.63114472069356,394.26949015070613L259.4308508232464,386.0394479556728L259.14603056684155,380.85754936729774L252.18277445504793,368.0554717100695L247.78248913290633,354.9495826032562L248.58430963019535,348.54965189863367L238.93880542901832,341.84555280860036L233.92441243695544,342.4549881680696L226.68957952792277,337.884374267676L223.827965888297,344.8927879205688L225.91091658705307,352.8162180730236L226.26387618662324,365.61706613111573L230.9295061912756,372.62757130777896L240.9256461827344,384.2105411163584L242.75809540740835,388.17317132460767L244.71475835041508,389.39244009824347L246.47509358739052,395.18393071170436L249.0038065506629,394.87911746371725L251.5671503705793,405.85215799359577L255.42835355460826,410.1192753252114L258.21614857234874,416.21492661293377L266.48277146309886,424.7482854783384L270.97990791612574,440.59379456347057L274.78831480117435,447.90597597940814L278.59042063351455,455.8265844507183L278.8090203627454,464.9644532592855L285.40274639897893,465.57359253062975L288.8224521310168,469.99999999999994L274.73368801930303,469.99999999999994L274.73368801930303,469.99999999999994L274.58564128050136,469.8373786358877L264.67943660958565,461.6140692601161L257.7104186460426,457.34966177265545L258.6506744223735,445.1639997483958L256.45123086899025,436.0232986561089L250.07818213745247,430.53834587403L240.76018777931364,423.2245242372599L238.65054030623747,425.3577830894241L235.30233493229116,420.7864567645173L226.88562769272193,416.824474938706L219.25168182901342,407.07134648224235L220.33021740378007,405.5473594512323L225.83313522442347,406.46175338913514L231.64984542569806,400.3657058764938L232.49769735015548,392.74541749182606L222.0195650110909,380.55273252979435L214.22002182302265,375.9805019375882L209.76194200525418,365.3122681283018L204.8535120645027,354.34004470119737L199.64137041734034,340.62670026683315L194.5759888416348,325.3934052421803L194.5759888416348,325.3934052421803L210.54162072896105,324.17495757646793L228.02237393120402,322.3473540473217L226.8465551385592,325.69802269800914L246.80276273265716,333.9234776244741L278.1386859734878,345.8069860179405L305.57873236275475,345.50225195342273L316.5496022262222,345.50225195342273L316.78548646657794,338.79846837440846L340.69115184096927,338.79846837440846L345.49973608535345,344.58805797619334L352.8255381411243,350.07339922222513L360.62088039080913,357.3877733969929L364.9001756337732,366.2266639953681L368.18100635786993,375.6756884598396L375.5891061771419,380.85754936729774L387.0370527414563,385.73463015973L395.823087541514,372.32276157059397L407.35463116048027,372.0179522325181L416.7769262809831,378.72383475498316L423.64749421305163,390.3068904269869L428.5532663753618,400.3657058764938L436.5084692006937,410.1192753252114L439.41919321087914,422.00549795964145L443.39182945583707,429.9288839227341L454.4873730282336,435.10916619611044L464.5956266440347,438.7656300742636L469.66524934355266,438.1562317725182L464.52005447812866,453.0849488411964L461.9146007121473,465.2690237281293L461.6784780146539,469.99999999999994L327.4627160465778,469.99999999999994Z" style="fill: none; stroke-miterlimit: 2; stroke: rgb(68, 68, 68); stroke-opacity: 1; stroke-width: 1px;"/></g><g class="layer coastlines"><path d="M112.59242232407667,34.71279548192422L117.96047308689106,42.33786416028033L129.94484216501348,49.096331415836175L133.8443381937501,58.22461278648859L127.1039515860237,60.28879216323594L106.83013724804687,52.9216954575503L103.9206798035878,47.33207613495779L93.25969098733526,41.457231716121896L91.65387085124468,36.764114915964456L79.25391588436975,33.83401955443742L77.65075054807546,30M109.77060900772733,30L112.59242232407667,34.71279548192422M327.4627160465778,469.99999999999994L317.57572626757985,460.7002939622182L311.2599692100909,450.03854509671805L299.2882998939308,443.03127464434596L296.87464659964115,439.0703273376818L299.22136114081957,428.70994693454105L292.2676237616255,424.7482854783384L283.95545413432023,416.5197011820245L280.8461033002092,404.6329605365923L273.8479875438957,403.1089518445564L265.63114472069356,394.26949015070613L259.4308508232464,386.0394479556728L259.14603056684155,380.85754936729774L252.18277445504793,368.0554717100695L247.78248913290633,354.9495826032562L248.58430963019535,348.54965189863367L238.93880542901832,341.84555280860036L233.92441243695544,342.4549881680696L226.68957952792277,337.884374267676L223.827965888297,344.8927879205688L225.91091658705307,352.8162180730236L226.26387618662324,365.61706613111573L230.9295061912756,372.62757130777896L240.9256461827344,384.2105411163584L242.75809540740835,388.17317132460767L244.71475835041508,389.39244009824347L246.47509358739052,395.18393071170436L249.0038065506629,394.87911746371725L251.5671503705793,405.85215799359577L255.42835355460826,410.1192753252114L258.21614857234874,416.21492661293377L266.48277146309886,424.7482854783384L270.97990791612574,440.59379456347057L274.78831480117435,447.90597597940814L278.59042063351455,455.8265844507183L278.8090203627454,464.9644532592855L285.40274639897893,465.57359253062975L288.8224521310168,469.99999999999994M274.73368801930303,469.99999999999994L274.58564128050136,469.8373786358877L264.67943660958565,461.6140692601161L257.7104186460426,457.34966177265545L258.6506744223735,445.1639997483958L256.45123086899025,436.0232986561089L250.07818213745247,430.53834587403L240.76018777931364,423.2245242372599L238.65054030623747,425.3577830894241L235.30233493229116,420.7864567645173L226.88562769272193,416.824474938706L219.25168182901342,407.07134648224235L220.33021740378007,405.5473594512323L225.83313522442347,406.46175338913514L231.64984542569806,400.3657058764938L232.49769735015548,392.74541749182606L222.0195650110909,380.55273252979435L214.22002182302265,375.9805019375882L209.76194200525418,365.3122681283018L204.8535120645027,354.34004470119737L199.64137041734034,340.62670026683315L194.5759888416348,325.3934052421803L193.11635420813292,316.8650606201006L184.8221916104976,307.1208877816006L178.53136775413674,304.9897504843144L177.3771785777929,300.11916987716825L169.5343765853986,299.20603123713965L164.91880906715818,294.6408129063998L152.19881577632862,293.1192553960109L148.95142835025712,290.380690851384L148.17142791393474,281.25450166566134L136.27212701216945,264.2299521812681L127.06671478715322,240.5462025110745L127.8804510867833,236.90604624692605L122.0771785502422,231.1445863407141L113.2015050578151,217.20735304822222L112.64222765154886,203.28816735338683L106.33119994863404,194.221188703322L110.67356776824255,180.33660727079734L111.74522818887414,165.87394800590573L109.32118826537885,153.24266085300735L115.87376845151266,137.33754882348705L119.48990313757429,122.37108096113445L122.65852165118866,107.4451909762904L123.0276167945861,85.13971089200606L120.59681536227089,71.21699670657267L117.88448867923375,63.53465897060323L120.16312239265022,60.28879216323594L137.9737287532804,65.89692723099108L143.08113754547395,81.28430395570956L146.8320725233176,77.13609349788669L146.1421594664037,63.53465897060323L143.62399918649686,50.27295839458827L141.81680604508358,49.97876750891669L130.5462123635392,41.977890073292315L119.0932872092842,34.126920721326314L114.29562471785263,30M924.0975566888744,32.57932069460083L923.4298375440957,32.66265691077558L902.5456131738698,30M863.8327539896036,30L863.5132144051043,30.02851382247991L854.4915339594971,41.750752396068606L839.2892456002235,49.096331415836175L823.255213123307,70.62554174736852L809.9862629582215,86.02989199501121L820.4080423864888,83.06330782835357L829.5689089555167,72.20539784463551L838.9085581004761,61.468803791566756L851.383549093719,54.611363771910646L864.0267519838931,47.92006958984348L883.1768527387205,46.45025836617913L895.3355011407796,54.39400405810386L884.7815032027756,65.30623176761469L891.2860084665269,83.06330782835357L897.097685841906,95.5359253882308L915.0584504262367,103.86938358710381L924.0975566888744,102.85664241364984M924.0975566888744,118.64655774064516L916.3987912885847,121.47435036207798L904.0260968610119,128.35298338989958L890.7570178915341,140.33542250161986L880.6192982795433,138.83630079955265L878.5433508025678,124.76307472701262L899.5642296151893,111.32183412676648L878.8949140541154,111.6201586740799L864.543507795674,113.70891019366309L867.508778945476,119.08378829825483L854.229783026113,127.15609368112939L841.1004520441579,132.8435437376769L827.8609944486304,137.93700503921957L821.6778596803117,147.8364637643216L820.1083598546456,151.44009978719646L820.4564351618643,160.45773085272992L826.0285972611641,169.18586184174603L831.3493262549966,169.788187945505L829.3307127689579,163.46623167292694L833.5193129852333,167.37917783760656L833.0077579641984,172.1979776173722L824.1477163462281,174.909907163311L817.8625779821477,174.30717317753226L808.5307247608979,177.32131172766344L802.8487002549939,178.22578000846397L794.7638525614939,179.13035176384756L784.0958677184911,183.95645515727404L803.5278368876454,180.63819952840925L807.6453665862537,183.95645515727404L789.2998754516121,189.0872847792673L781.1183859399839,189.0872847792673L780.9595445505872,186.97421129901784L777.4466417940994,191.50286367099727L781.3668592945312,192.40887881380547L779.359427363572,204.4977606620937L770.5710919500011,217.20735304822222L769.3126963016912,212.96907067372968L766.3456008149558,212.06109048194776L761.7046629152655,207.82491825323007L764.7334718303701,216.90456246656174L768.3307185312397,219.93284932054848L769.2415116126001,226.29493758405272L765.3022338113734,232.96370720494792L758.3423851455921,246.31180459345273L757.328872496457,245.7047857177721L760.5122867182615,234.17660313558247L753.3019349267529,227.8102401493959L750.9683985481222,213.87713035914487L749.0014322583913,221.14439852083035L752.0872479880479,231.7509300034916L743.1670165551848,229.02262228684515L752.7417021382294,234.47984551468357L754.2027849904273,250.56165944750228L758.1861528421139,251.77613130495865L760.0016275766507,257.546202044706L762.9741487449915,274.56446453105866L755.3193458737503,287.0339885435021L741.2822912156296,291.9020771819436L732.8992786051074,301.94553875674103L726.0361479084472,303.1631845220427L719.3913230270232,309.2521748879036L717.6693968907789,315.03781193339216L702.7506493436854,326.00264234253154L695.1067878427059,333.9234776244741L689.0055499094126,343.9786022916238L687.4309448086211,355.8638969433747L690.3436869548084,367.75066901351016L695.3577489637391,382.3816353170736L702.2979896521412,394.26949015070613L702.5470776317901,401.58493086027136L709.7598426554468,421.0912184390582L709.6340230127319,432.6714275414485L709.3324892385987,439.0703273376818L706.10463357258,449.4292468077839L702.1081043833938,451.5617653774654L694.9485979086331,449.7338966743863L692.6998660087361,442.1172294791505L687.011521270333,438.1562317725182L679.0146303147933,423.8340316528497L672.0810471388427,410.72885335666575L669.8759419142871,404.0233585966404L672.5809485780649,393.0502324902048L668.2831729367788,383.6009056375744L656.8458816004415,369.5794930934134L651.7616020800788,366.8362642684636L637.9318755090807,374.45643755836244L635.4030967049525,373.54200281492547L628.2094585137921,365.9218647569429L619.6065016491535,361.6547445119992L603.6410711798819,363.788287825576L591.6013170743975,361.95953421792944L581.1104465945663,362.87390779167157L575.1444765028266,365.61706613111573L577.7114140189473,370.1891051435929L577.804434122017,376.89494402171044L580.3597130055891,380.2479158314618L577.8836717333529,382.6864527947279L572.8279721172597,379.9430992816386L567.3473538043593,383.29608796412975L557.2987850866649,382.6864527947279L547.1837455206035,373.8468140495948L534.6646913647443,375.9805019375882L524.6177349249027,372.0179522325181L516.1021300376383,373.2371919398291L504.0753915721692,377.1997585679537L491.5172751238476,389.6972570081703L477.91745356176233,397.01280395897646L469.8231396837933,405.24256035588445L466.7577263206964,412.8623547081598L466.6961630314767,424.443535184702L467.1596565217002,432.6714275414485L469.66524934355266,438.1562317725182L464.52005447812866,453.0849488411964L461.9146007121473,465.2690237281293L461.6784780146539,469.99999999999994M737.0615622224475,449.4292468077839L741.14314522099,450.03854509671805L746.7177580667387,464.05073189411297L746.923253174746,469.99999999999994M741.6396452437557,469.99999999999994L739.628859515037,464.9644532592855L734.3798043363765,460.09110239535534L737.0615622224475,449.4292468077839M724.9729585541946,422.6150129890481L731.4986480677037,421.39597920077995L740.6176152865083,422.00549795964145L741.2851215079233,426.27202197134665L726.2107905680766,429.0146828022676L724.9729585541946,422.6150129890481M741.4877550720429,418.3483312975235L752.9042845371223,425.96727669034453L750.8474892488276,438.1562317725182L748.2336167826071,436.0232986561089L747.894772686498,427.1862516618841L741.5699165332851,420.48169418371305L741.4877550720429,418.3483312975235M900.9996268630788,82.47022722227052L906.7312269099727,90.4834139803113L916.3615994406213,92.56319936594036L924.0975566888744,92.37352716815977M924.0975566888744,97.33691886853994L922.8255746894049,98.80807469475792L918.2979824273325,99.99849908315537L900.9643068159041,92.86038737037507L896.9968393310395,87.51391658224895L900.9996268630788,82.47022722227052M888.1461985862225,35.884833988071136L892.5242422864683,34.4198460390827L910.0986284697044,38.523321869041524L924.0264130676496,45.56864812331037L924.0975566888744,45.79997374882193M924.0975566888744,48.54637907444819L918.5226199697983,48.802231660510984L901.1752318644114,43.512368575585356L888.1461985862225,35.884833988071136" style="fill: none; stroke-miterlimit: 2; stroke: rgb(68, 68, 68); stroke-opacity: 1; stroke-width: 1px;"/></g><g class="layer frame"><path d="M75.90244331112552,30L924.0975566888744,30L924.0975566888744,469.99999999999994L75.90244331112552,469.99999999999994Z" style="fill: none; stroke-miterlimit: 2; stroke: rgb(68, 68, 68); stroke-opacity: 1; stroke-width: 1px;"/></g><g class="layer backplot"><g class="choroplethlayer"/></g><g class="layer frontplot"><g class="scatterlayer"><g class="trace scattergeo" style="opacity: 1;"><path class="point" d="M10,0A10,10 0 1,1 0,-10A10,10 0 0,1 10,0Z" transform="translate(818.8138830960957,160.11631674771274)" style="opacity: 1; stroke-width: 3px; fill: rgb(255, 0, 0); fill-opacity: 1; stroke: rgb(68, 68, 68); stroke-opacity: 0;"/></g></g></g></g></g><g class="funnelarealayer"/><g class="pielayer"/><g class="treemaplayer"/><g class="sunburstlayer"/><g class="glimages"/><defs id="topdefs-f90e68"><g class="clips"/></defs><g class="layer-above"><g class="imagelayer"/><g class="shapelayer"/></g><g class="infolayer"><g class="g-gtitle"/></g></svg>